<svg id="Layer_1" data-name="Layer 1" xmlns="http://www.w3.org/2000/svg" viewBox="0 0 360 360">
  <defs>
    <style>
      .cls-1 {
        fill: #efd81d;
      }

      .cls-2 {
        fill: #fff;
      }
    </style>
  </defs>
  <title>logo</title>
  <path class="cls-1" d="M180,0A180,180,0,1,0,360,180,180,180,0,0,0,180,0Zm0,316A136,136,0,1,1,316,180,136,136,0,0,1,180,316Z"/>
  <circle class="cls-1" cx="180" cy="180" r="90"/>
  <path class="cls-2" d="M152,156.3c-9.85,5.48-17.09,12.61-17.09,25.22,0,10.59,5.83,17.36,13.88,17.36,9.65,0,13.06-6.95,18.68-18.61l3-6.39c8.65-18.45,19.49-30.7,42.39-30.7,21.11,0,37.17,14.6,37.17,37.43,0,16.26-6.23,27.94-22.53,36.36l-14.07-19.91c8.65-4.38,12.06-9.11,12.06-16.45s-5.23-12.23-12.06-12.23c-8.44,0-11.85,4.75-17.08,15.72l-3,6.39c-10.25,21.72-20.7,34-44.2,34-25.33,0-39.21-18.08-39.21-42.36,0-23.74,12.45-39.08,28.77-46.58Z"/>
</svg>
